<?xml version="1.0" encoding="UTF-8" standalone="no"?>
<!-- Created with Inkscape (http://www.inkscape.org/) -->

<svg
   width="32.003647mm"
   height="58.339111mm"
   viewBox="0 0 32.003647 58.339111"
   version="1.1"
   id="svg5"
   xml:space="preserve"
   xmlns="http://www.w3.org/2000/svg"
   xmlns:svg="http://www.w3.org/2000/svg"><defs
     id="defs2" /><g
     id="layer1"
     transform="translate(-37.401399,-138.31433)"><path
       style="fill:#83DEF0;fill-opacity:1;fill-rule:evenodd;stroke:#83DEF0;stroke-width:0.313118;stroke-linecap:round;stroke-dasharray:none;stroke-opacity:1"
       d="m 60.15408,168.462 c 1.96207,1.55516 4.1995,-0.68181 5.60583,-2.15757 1.26279,-1.34358 2.40248,-2.99136 3.00486,-4.77196 0.45708,-1.35113 0.59996,-2.85126 0.38655,-4.26156 -0.26282,-1.7368 -0.88963,-3.5174 -2.00751,-4.87235 -1.15199,-1.39629 -2.82716,-2.55746 -4.53652,-2.98504 -0.87353,-0.21851 -4.25726,-0.70364 -6.72855,0.82335 -1.53256,0.94695 -2.22059,2.50195 -2.39426,2.42497 -1.89606,-2.41019 -3.41046,-3.45753 -5.9044,-3.45332 -3.8997,-0.0161 -6.250456,1.01991 -8.32943,4.05407 -1.771883,2.69751 -2.093242,6.56916 -1.237761,10.41406 0.93912,3.32951 3.949167,6.89841 5.808821,8.43382 1.85966,1.53542 4.37758,2.57382 7.02275,5.55741 2.64517,2.9836 3.29816,6.33847 3.24804,9.52151 -0.0501,3.18304 -0.68325,4.24902 -1.82232,5.73198 -1.13907,1.48296 -1.5604,1.54551 -2.95969,1.56296 -1.39928,0.0175 -2.11501,-1.02673 -2.98197,-2.23509 -0.86696,-1.20838 -1.3141,-3.4812 -1.41625,-5.13899 -0.10214,-1.6578 0.26013,-3.30576 0.76976,-4.65147 0.50963,-1.3457 1.56414,-2.58953 2.1146,-3.36518 0.55047,-0.77565 1.21358,-0.99024 1.19201,-1.47539 -0.0216,-0.48515 -0.43681,-0.67422 -0.86402,-0.90585 -1.49608,-0.55388 -3.72457,1.72183 -4.36865,2.31597 -2.024307,1.85284 -4.05977,5.45662 -3.933581,8.76133 0.09441,1.99498 1.507308,5.73391 4.316781,7.44433 1.18353,0.71029 5.08939,1.88304 9.03858,0.86402 3.94919,-1.01901 6.63812,-6.31898 6.18312,-11.20727 -0.48886,-4.38206 -2.80669,-7.73905 -4.37497,-9.49673 -1.56828,-1.75767 -4.10979,-3.47369 -7.27349,-5.91237 -2.98063,-2.34098 -4.68845,-6.19071 -4.83999,-10.00185 -0.0535,-1.76091 0.12674,-3.65738 0.99399,-5.19086 0.76041,-1.34458 1.41018,-3.06966 3.45136,-3.09243 2.04119,-0.0228 2.86942,2.24721 3.94836,5.14944 1.07895,2.90224 1.44785,3.92097 2.24319,3.90695 0.79534,-0.014 1.44662,-2.03567 2.11223,-3.91953 0.66562,-1.88386 1.53951,-5.15122 4.36016,-5.07216 2.82066,0.079 4.06723,4.05463 4.15112,7.68924 0.0839,3.63462 -0.82803,4.88094 -1.93277,6.54853 -1.10474,1.66759 -2.48622,2.4327 -2.04598,2.96303 z"
       id="path3336-5-2" /><path
       style="opacity:1;fill:#83DEF0;fill-opacity:1;fill-rule:evenodd;stroke:#83DEF0;stroke-width:1.006;stroke-linecap:round;stroke-dasharray:none;stroke-opacity:1"
       d="m 48.5037,144.8479 c 0.85831,-0.9173 5.01639,-5.14995 5.74591,-5.82701 0.72951,-0.67706 2.89115,0.49192 2.15093,1.23433 -0.74022,0.7424 -5.22491,4.97885 -6.0022,5.74591 -0.77729,0.76705 -2.75296,-0.23594 -1.89464,-1.15323 z"
       id="path4153-3" /></g></svg>
